<svg width="25" height="25" viewBox="0 0 25 25" fill="currentColor" xmlns="http://www.w3.org/2000/svg">
<path d="M15.6029 12.2006L11.248 9.29735C11.1935 9.26101 11.13 9.24012 11.0645 9.23693C10.9991 9.23373 10.9339 9.24835 10.8761 9.27921C10.8181 9.30938 10.7696 9.35502 10.7359 9.41107C10.7023 9.46712 10.6849 9.53139 10.6855 9.59675V15.4032C10.6849 15.4686 10.7023 15.5328 10.7359 15.5889C10.7696 15.6449 10.8181 15.6906 10.8761 15.7207C10.9295 15.7484 10.9883 15.7639 11.0484 15.7661C11.1201 15.7674 11.1903 15.7451 11.248 15.7026L15.6029 12.7994C15.6535 12.7675 15.6952 12.7233 15.7241 12.671C15.753 12.6186 15.7681 12.5598 15.7681 12.5C15.7681 12.4402 15.753 12.3813 15.7241 12.329C15.6952 12.2766 15.6535 12.2325 15.6029 12.2006V12.2006ZM11.4113 14.7228V10.2772L14.75 12.5L11.4113 14.7228ZM21.7994 7.31046C21.7245 7.03384 21.5863 6.77841 21.3958 6.56429C21.2053 6.35017 20.9677 6.18322 20.7017 6.07659C17.6351 4.89715 12.7087 4.9153 12.5 4.9153C12.2914 4.9153 7.36497 4.89715 4.29843 6.07659C4.03241 6.18322 3.79479 6.35017 3.60429 6.56429C3.41378 6.77841 3.27561 7.03384 3.20065 7.31046C2.97384 8.1905 2.70166 9.80542 2.70166 12.5C2.70166 15.1945 2.97384 16.8095 3.20065 17.6895C3.27561 17.9661 3.41378 18.2215 3.60429 18.4357C3.79479 18.6498 4.03241 18.8167 4.29843 18.9234C7.36497 20.1028 12.2914 20.0847 12.5 20.0847H12.5636C13.1896 20.0847 17.7894 20.0484 20.7017 18.9234C20.9677 18.8167 21.2053 18.6498 21.3958 18.4357C21.5863 18.2215 21.7245 17.9661 21.7994 17.6895C22.0263 16.8095 22.2984 15.1945 22.2984 12.5C22.2984 9.80542 22.0263 8.1905 21.7994 7.31046V7.31046ZM21.0918 17.508C21.0482 17.6732 20.9663 17.8258 20.8529 17.9534C20.7394 18.0811 20.5975 18.1803 20.4386 18.2429C17.499 19.377 12.5545 19.3588 12.5 19.3588C12.4456 19.3588 7.50106 19.377 4.56154 18.2429C4.40264 18.1803 4.26072 18.0811 4.14724 17.9534C4.03376 17.8258 3.95192 17.6732 3.90831 17.508C3.69057 16.6643 3.42747 15.1129 3.42747 12.5C3.42747 9.88707 3.69057 8.33566 3.90831 7.49191C3.95192 7.32676 4.03376 7.17419 4.14724 7.04653C4.26072 6.91887 4.40264 6.8197 4.56154 6.75703C7.50106 5.62296 12.4456 5.64111 12.5 5.64111C12.5545 5.64111 17.499 5.62296 20.4386 6.75703C20.5975 6.8197 20.7394 6.91887 20.8529 7.04653C20.9663 7.17419 21.0482 7.32676 21.0918 7.49191C21.3095 8.33566 21.5726 9.88707 21.5726 12.5C21.5726 15.1129 21.3095 16.6643 21.0918 17.508Z"/>
</svg>
