<svg width="25" height="25" viewBox="0 0 25 25" fill="currentColor" xmlns="http://www.w3.org/2000/svg"><path d="M22.1244 3.56292C21.9157 3.38996 21.6641 3.27669 21.3963 3.23512C21.1284 3.19355 20.8544 3.22522 20.6031 3.32679L3.26403 10.3265C2.98384 10.4416 2.7453 10.6392 2.58007 10.8931C2.41484 11.147 2.33074 11.4452 2.33892 11.748C2.34711 12.0508 2.44721 12.344 2.62592 12.5886C2.80464 12.8332 3.05351 13.0176 3.33952 13.1174L7.08081 14.4161L9.10823 21.1187C9.1121 21.1323 9.12468 21.141 9.13049 21.1536C9.15137 21.207 9.18188 21.2562 9.22049 21.2987C9.27915 21.3642 9.35487 21.4122 9.4392 21.4371C9.44887 21.441 9.45565 21.4497 9.46532 21.4516H9.47113L9.47403 21.4526C9.5489 21.4687 9.6267 21.4647 9.69952 21.441C9.70726 21.4391 9.715 21.4391 9.72371 21.4361C9.79363 21.4116 9.8569 21.3712 9.90855 21.3181C9.91436 21.3113 9.92403 21.3103 9.92984 21.3045L12.8456 18.0858L17.1008 21.381C17.3592 21.5832 17.6776 21.6926 18.0056 21.6926C18.716 21.6926 19.3286 21.1952 19.4747 20.5013L22.6315 5.00002C22.685 4.73686 22.6661 4.46411 22.5768 4.21085C22.4875 3.95759 22.3311 3.73331 22.1244 3.56195V3.56292ZM10.166 15.6887L9.48178 19.0149L8.05436 14.2942L15.1334 10.6071L10.2976 15.4439C10.2306 15.5108 10.1848 15.596 10.166 15.6887V15.6887ZM18.5263 20.3068C18.5081 20.3945 18.4677 20.4762 18.4089 20.5438C18.3501 20.6114 18.2749 20.6628 18.1905 20.6929C18.1082 20.7246 18.019 20.7343 17.9318 20.7211C17.8446 20.7078 17.7623 20.6721 17.6931 20.6174L13.0837 17.0474C12.9874 16.9731 12.8665 16.9377 12.7453 16.9485C12.624 16.9592 12.5113 17.0153 12.4295 17.1055L10.4002 19.342L11.0834 16.0255L18.0405 9.06744C18.122 8.9857 18.1715 8.87752 18.1803 8.76244C18.189 8.64736 18.1563 8.53295 18.0881 8.43986C18.0199 8.34676 17.9206 8.28112 17.8083 8.25476C17.6959 8.22841 17.5778 8.24309 17.4753 8.29615L7.44661 13.52L3.65597 12.202C3.55546 12.1688 3.4678 12.1051 3.40519 12.0197C3.34257 11.9344 3.30812 11.8317 3.30662 11.7258C3.30179 11.6191 3.33032 11.5134 3.38824 11.4236C3.44616 11.3338 3.5306 11.2642 3.62984 11.2245L20.966 4.22486C21.0548 4.18711 21.1524 4.1749 21.2478 4.18961C21.3432 4.20431 21.4326 4.24534 21.506 4.30808C21.5789 4.3671 21.634 4.44524 21.6651 4.53376C21.6962 4.62228 21.7021 4.7177 21.6821 4.80937L18.5263 20.3078V20.3068Z"/></svg>