<svg width="31" height="25" viewBox="0 0 31 25" fill="currentColor" xmlns="http://www.w3.org/2000/svg"><path d="M24.8333 20.6646C24.0955 20.648 23.3763 20.4302 22.7533 20.0346C22.1029 19.595 21.5056 19.0816 20.9733 18.5046C20.5333 18.0646 19.8033 17.3246 19.5233 17.3246C19.2433 17.3246 19.0433 18.2446 19.0533 18.8946C19.0575 19.3433 18.8893 19.7765 18.5833 20.1046C18.2353 20.3888 17.8106 20.5629 17.3633 20.6046H15.4433C12.6837 20.5439 10.0413 19.477 8.01327 17.6046C4.33327 14.2346 1.17327 7.79462 1.04327 7.51462C0.91927 7.2807 0.867342 7.01529 0.894038 6.75189C0.920734 6.48849 1.02486 6.2389 1.19327 6.03462C1.57441 5.71676 2.05705 5.54641 2.55327 5.55462H6.63327H6.75327C7.09085 5.60387 7.41443 5.72308 7.70327 5.90462C7.97508 6.08688 8.19272 6.33907 8.33327 6.63462C8.76444 7.55768 9.25896 8.44981 9.81327 9.30462C11.1233 11.3046 11.7033 11.7646 11.9133 11.8646C12.1469 10.9269 12.2112 9.95497 12.1033 8.99462C12.1383 8.55722 12.0662 8.11788 11.8933 7.71462C11.6737 7.53899 11.4041 7.43746 11.1233 7.42462L10.3933 6.73462C10.2533 6.07462 10.9833 5.50462 11.4933 5.28462C12.5111 4.96571 13.5788 4.8369 14.6433 4.90462H15.3533C16.0753 4.88581 16.7971 4.95295 17.5033 5.10462C19.2033 5.46462 19.1433 6.83462 19.0733 8.41462C19.0733 8.87462 19.0233 9.41462 19.0233 10.0346C19.0233 10.1846 19.0233 10.3446 19.0233 10.5146C18.9839 10.95 19.0143 11.3888 19.1133 11.8146C19.9458 11.1182 20.6469 10.2782 21.1833 9.33462C21.7622 8.44236 22.2704 7.50617 22.7033 6.53462V6.53462C22.8351 6.22734 23.0611 5.96981 23.3486 5.7991C23.6361 5.62838 23.9704 5.55329 24.3033 5.58462H28.5833C28.7097 5.57256 28.8369 5.57256 28.9633 5.58462C29.9633 5.58462 30.5533 5.87462 30.7933 6.43462C31.0333 6.99462 30.9633 8.09462 28.4333 11.0446L27.4333 12.1746C26.9488 12.645 26.5315 13.1801 26.1933 13.7646C26.5721 14.1952 27.0019 14.578 27.4733 14.9046C28.6225 15.7706 29.634 16.8057 30.4733 17.9746C30.6701 18.2019 30.7989 18.4801 30.8449 18.7772C30.8908 19.0744 30.8522 19.3784 30.7333 19.6546C30.5237 19.9605 30.2433 20.2112 29.916 20.3853C29.5886 20.5594 29.224 20.6518 28.8533 20.6546L25.0633 20.7046L24.8333 20.6646ZM19.5233 15.8246C20.4233 15.8246 21.2033 16.6146 22.0333 17.4446C22.4816 17.9342 22.9849 18.3704 23.5333 18.7446C23.9479 19.0204 24.4353 19.1666 24.9333 19.1646H25.0333L28.8333 19.1146C29.0207 19.1039 29.2042 19.0563 29.3733 18.9746L29.2733 18.8146C28.5163 17.783 27.6135 16.8668 26.5933 16.0946C25.4033 15.0946 24.7933 14.6246 24.7233 13.8546C24.6533 13.0846 25.2133 12.4146 26.3333 11.1446L27.3333 10.0346C28.1775 9.17347 28.8706 8.17616 29.3833 7.08462C29.1601 7.07139 28.9364 7.07139 28.7133 7.08462H24.3433C24.2642 7.06695 24.1823 7.06695 24.1033 7.08462C23.6404 8.14606 23.0884 9.16638 22.4533 10.1346C20.5633 12.9546 19.6733 13.3346 19.0433 13.3346C18.8479 13.3346 18.6556 13.2865 18.4833 13.1946C17.4833 12.6246 17.4833 11.3546 17.5433 10.4346C17.5433 10.2846 17.5433 10.1346 17.5433 10.0046C17.5433 9.35462 17.5433 8.79462 17.5933 8.31462C17.6733 6.63462 17.5933 6.62462 17.2133 6.53462C16.601 6.41363 15.9772 6.35998 15.3533 6.37462H14.6633C14.0283 6.3615 13.3933 6.39492 12.7633 6.47462C12.8587 6.54492 12.943 6.6292 13.0133 6.72462C13.4257 7.37496 13.6314 8.13502 13.6033 8.90462C13.7333 10.5546 13.6633 12.7046 12.6033 13.2246C12.4156 13.3125 12.2105 13.3569 12.0033 13.3546C11.0733 13.3546 10.1533 12.4746 8.58327 10.0946C7.98079 9.18333 7.44281 8.231 6.97327 7.24462L6.89327 7.14462C6.79228 7.09314 6.68456 7.05611 6.57327 7.03462H2.57327H2.50327C3.09327 8.25462 5.89327 13.6546 9.02327 16.4846C10.7808 18.0993 13.058 19.0322 15.4433 19.1146H17.2933C17.3876 19.0945 17.4786 19.0608 17.5633 19.0146C17.5633 19.0146 17.5633 19.0146 17.5633 18.9246C17.5633 18.6546 17.5633 16.3246 19.1433 15.9246C19.2656 15.8764 19.3931 15.8429 19.5233 15.8246V15.8246Z"/></svg>