<svg xmlns="http://www.w3.org/2000/svg" xmlns:xlink="http://www.w3.org/1999/xlink"><defs><filter id="filter0_d_21225_289" x="69.374" y="13.5809" width="132.625" height="23.6473" filterUnits="userSpaceOnUse" color-interpolation-filters="sRGB"><feFlood flood-opacity="0" result="BackgroundImageFix"/><feColorMatrix in="SourceAlpha" type="matrix" values="0 0 0 0 0 0 0 0 0 0 0 0 0 0 0 0 0 0 127 0" result="hardAlpha"/><feOffset dy="1"/><feGaussianBlur stdDeviation="1"/><feColorMatrix type="matrix" values="0 0 0 0 0 0 0 0 0 0 0 0 0 0 0 0 0 0 0.3 0"/><feBlend mode="normal" in2="BackgroundImageFix" result="effect1_dropShadow_21225_289"/><feBlend mode="normal" in="SourceGraphic" in2="effect1_dropShadow_21225_289" result="shape"/></filter></defs><symbol id="call-full" viewBox="0 0 24 24"><g fill="currentColor"><path fill-rule="evenodd" clip-rule="evenodd" d="M11.9999 0.796875C7.77412 0.796875 3.53821 1.51113 2.00125 2.93476C0.726058 4.11583 0.300976 6.20233 0.157687 7.52341C0.157687 7.52341 0.137939 7.65396 0.137939 7.71011C0.137939 8.22816 0.582659 8.64365 1.12639 8.64365C1.19063 8.64365 3.56797 8.46157 5.00125 8.34956C5.03574 8.34484 5.0705 8.34021 5.10499 8.33091C5.63881 8.31699 6.0689 7.90612 6.0689 7.39738L6.07369 5.55816C6.07369 4.98869 6.56318 4.53117 7.1662 4.53117H16.8335C17.4366 4.53117 17.9261 4.98863 17.9261 5.55816L17.931 7.39738C17.931 7.90612 18.361 8.31699 18.8948 8.33091C18.9291 8.34026 18.9638 8.34484 18.9987 8.34956C20.4321 8.46151 22.8094 8.64365 22.8734 8.64365C23.4169 8.64365 23.8619 8.22816 23.8619 7.71011C23.8619 7.65396 23.8422 7.52341 23.8422 7.52341C23.6988 6.20233 23.2742 4.11588 21.999 2.93476C20.4615 1.51113 16.2256 0.796875 11.9999 0.796875ZM11.9999 12.9335C10.9076 12.9335 10.0229 13.769 10.0229 14.8006C10.0229 15.8322 10.9076 16.6677 11.9999 16.6677C13.0922 16.6677 13.9768 15.8322 13.9768 14.8006C13.9768 13.769 13.0922 12.9335 11.9999 12.9335ZM10.5171 8.73228V7.56533C10.5171 6.92121 9.96351 6.39839 9.28155 6.39839C8.59959 6.39839 8.04596 6.92126 8.04596 7.56533V8.73228L1.37826 15.4588C0.918797 15.8837 0.632055 16.4763 0.632055 17.13V19.0018C0.632055 20.0334 1.51682 20.8689 2.60906 20.8689H3.10334V22.036C3.10334 22.6801 3.65702 23.2028 4.33898 23.2028C5.02094 23.2028 5.57457 22.6801 5.57457 22.036V20.8689H18.4252V22.036C18.4252 22.6801 18.9786 23.2028 19.6609 23.2028C20.3428 23.2028 20.8963 22.6801 20.8963 22.036V20.8689H21.3906C22.4829 20.8689 23.3676 20.0334 23.3676 19.0018V17.13C23.3676 16.4762 23.0809 15.8836 22.6214 15.4588L15.9539 8.73228V7.56533C15.9539 6.92121 15.4002 6.39839 14.7182 6.39839C14.0363 6.39839 13.4827 6.92126 13.4827 7.56533V8.73228H10.5171ZM11.9999 11.0663C14.1845 11.0663 15.9539 12.7374 15.9539 14.8006C15.9539 16.8638 14.1845 18.5351 11.9999 18.5351C9.81527 18.5351 8.04591 16.8639 8.04591 14.8006C8.04591 12.7374 9.81527 11.0663 11.9999 11.0663Z"/></g></symbol><symbol id="call-small" viewBox="0 0 18 18"><g fill="currentColor"><path d="M8.97412 7.42388C8.97412 7.61288 9.12775 7.76138 9.3155 7.76138C9.70468 7.76138 10.0187 8.07526 10.0187 8.45663C10.0187 8.64225 10.1724 8.79413 10.3601 8.79413C10.5479 8.79413 10.7015 8.64225 10.7015 8.45663C10.7015 7.70064 10.0802 7.08638 9.3155 7.08638C9.12775 7.08638 8.97412 7.23826 8.97412 7.42388ZM14.5318 8.79413C14.723 8.79413 14.8732 8.64225 14.8732 8.45663C14.8732 5.42589 12.3811 2.96214 9.3155 2.96214C9.12775 2.96214 8.97412 3.114 8.97412 3.29964C8.97412 3.48526 9.12775 3.63714 9.3155 3.63714C12.0056 3.63714 14.1904 5.80051 14.1904 8.45663C14.1904 8.64225 14.344 8.79413 14.5318 8.79413Z"/><path d="M12.1047 8.45663C12.1047 8.64225 12.2583 8.79413 12.446 8.79413C12.6338 8.79413 12.7874 8.64225 12.7874 8.45663C12.7874 6.56326 11.2307 5.02426 9.3156 5.02426C9.12785 5.02426 8.97422 5.17614 8.97422 5.36176C8.97422 5.55076 9.12785 5.69926 9.3156 5.69926C10.8552 5.69926 12.1047 6.93788 12.1047 8.45663ZM9.3156 0.900002C9.12785 0.900002 8.97422 1.05188 8.97422 1.2375C8.97422 1.42314 9.12785 1.575 9.3156 1.575C13.1561 1.575 16.2797 4.66314 16.2797 8.45663C16.2797 8.64225 16.43 8.79413 16.6211 8.79413C16.8089 8.79413 16.9625 8.64225 16.9625 8.45663C16.9625 4.28852 13.5316 0.900002 9.3156 0.900002ZM12.6509 12.0139L12.2037 12.2535C11.4492 12.6619 10.8621 13.7813 9.93111 12.9375L7.50006 10.5L5.39999 8.45663C4.3449 7.1235 5.5263 6.80625 5.93936 6.05701L6.18174 5.61827C6.45484 5.11875 6.55383 4.55851 6.47191 3.99825C6.3934 3.43801 6.13736 2.92838 5.7277 2.52338C5.2293 2.03064 4.56703 1.76064 3.86037 1.76064C3.15371 1.76064 2.48802 2.03064 1.9896 2.52338L1.81551 2.69888C0.893782 3.61014 0.787955 5.1795 1.51509 7.1235C2.20125 8.97975 3.58385 10.9913 5.39999 12.7868C8.16857 15.5239 11.2512 17.1 13.4634 17.1C14.3373 17.1 15.0781 16.8536 15.6038 16.3339L15.7813 16.1584C16.2763 15.669 16.5528 15.0143 16.5563 14.3089C16.5528 13.6204 16.2695 12.9454 15.7813 12.4628C14.9586 11.6494 13.6716 11.4671 12.6509 12.0139Z"/></g></symbol><symbol id="icon-close" viewBox="0 0 20 20"><g fill="none"><path d="M.293 18.291a1 1 0 101.414 1.414L10 11.413l8.292 8.292a1 1 0 101.414-1.414l-8.292-8.292 8.292-8.292A1 1 0 1018.291.293L9.999 8.585 1.707.293A1 1 0 10.293 1.707L8.585 10 .293 18.291z"/></g></symbol><symbol id="logo-full" viewBox="0 0 200 50"><g fill="none"><path d="M93.9956 12.6437L53.899 50L39.2637 2.10917L93.9956 12.6437Z" fill="#FF8D30"/><ellipse cx="94.727" cy="33.897" rx="4.353" ry="4.25192" fill="#88BFEB"/><ellipse cx="111.867" cy="21.5314" rx="15.1738" ry="14.8214" fill="#EB9898"/><rect width="56.1361" height="28.0818" transform="matrix(0.940449 -0.339934 0.354279 0.93514 102.938 23.3034)" fill="#72A73E"/><ellipse cx="110.041" cy="40.6436" rx="2.55056" ry="2.49133" fill="#FFBD30"/><ellipse cx="22.7786" cy="9.03912" rx="22.7786" ry="9.03912" transform="matrix(0.97092 0.239406 -0.250219 0.968189 139.238 19.188)" fill="#8EC7F5"/><ellipse cx="176.368" cy="12.2097" rx="2.59389" ry="2.53366" fill="#FFBD30"/><ellipse cx="184.46" cy="9.19954" rx="2.59389" ry="2.53366" fill="#FFBD30"/><path d="M4.02588 42.0822H10.039V45.0343C10.039 45.5866 9.59133 46.0343 9.03905 46.0343H5.02588C4.47359 46.0343 4.02588 45.5866 4.02588 45.0343V42.0822Z" fill="#1D2959"/><path d="M41.209 42.0822H47.2222V45.0343C47.2222 45.5866 46.7744 46.0343 46.2222 46.0343H42.209C41.6567 46.0343 41.209 45.5866 41.209 45.0343V42.0822Z" fill="#1D2959"/><path fill-rule="evenodd" clip-rule="evenodd" d="M28.8202 3.49767C27.6472 3.04017 26.366 2.67304 25.4365 2.69114C24.5613 2.70819 23.3628 3.0787 22.2693 3.52448C21.6572 3.77405 21.0528 4.04925 20.4702 4.36048L20.4663 4.36256C19.777 4.73697 18.9092 4.49124 18.5283 3.8134C18.1473 3.13545 18.3973 2.28216 19.0867 1.9075C19.2875 1.79986 19.491 1.69708 19.6958 1.59699C20.0642 1.41695 20.581 1.17631 21.177 0.933328C22.32 0.467338 23.9373 0.0295369 25.38 0.00143768C26.9152 -0.0284637 28.6474 0.412716 29.8718 0.890271C30.6356 1.18821 31.3888 1.51746 32.1126 1.90084L32.1135 1.90132C32.8064 2.26972 33.0643 3.12072 32.6897 3.80208C32.3172 4.47963 31.4393 4.72838 30.7526 4.3665C30.5771 4.27486 30.3991 4.18782 30.2201 4.10286C29.8704 3.93684 29.3802 3.71611 28.8202 3.49767Z" fill="#8A4A38"/><path fill-rule="evenodd" clip-rule="evenodd" d="M19.2681 1.72617C18.6284 1.72617 18.1099 2.24473 18.1099 2.8844V3.59085C18.1099 4.12391 18.542 4.55604 19.0751 4.55604H19.1011V8.20736H20.1118V4.52993H19.8625C20.5138 4.40313 21.0054 3.82953 21.0054 3.14111C21.0054 2.35966 20.372 1.72617 19.5905 1.72617H19.2681Z" fill="#F6EF3E"/><path fill-rule="evenodd" clip-rule="evenodd" d="M31.9428 1.72617C32.5825 1.72617 33.1011 2.24473 33.1011 2.8844V3.59085C33.1011 4.12391 32.6689 4.55604 32.1359 4.55604H32.1098V8.20736H31.0991V4.52993H31.3485C30.6971 4.40313 30.2055 3.82953 30.2055 3.14111C30.2055 2.35966 30.839 1.72617 31.6204 1.72617H31.9428Z" fill="#F6EF3E"/><path d="M0 16.7622C0 11.7917 4.02944 7.76221 9 7.76221H42.2528C47.2234 7.76221 51.2529 11.7917 51.2529 16.7622V42.0822H0V16.7622Z" fill="#8A4A38"/><ellipse cx="8.05329" cy="33.2472" rx="5.02106" ry="4.906" fill="#EF9A9A"/><ellipse cx="4.80899" cy="9.25664" rx="4.80899" ry="9.25664" transform="matrix(0.705106 -0.709101 0.725463 0.688261 29.3711 30.4553)" fill="#93C6EB"/><rect width="16.3937" height="9.13786" transform="matrix(0.693232 -0.720714 0.73677 0.676144 19.7539 21.3155)" fill="#C2DEA3"/><rect width="8.33473" height="6.24579" rx="1" transform="matrix(0.737932 0.674875 -0.691988 0.721909 10.5845 13.2612)" fill="#C49A6C"/><rect x="10.0396" y="23.0503" width="7.06842" height="19.9995" fill="#F57B20"/><path d="M10.0396 6.46931H17.108V23.7643C17.108 25.7061 15.5155 27.2802 13.5738 27.2802C11.632 27.2802 10.0396 25.7061 10.0396 23.7643V6.46931Z" fill="#F6A725"/><rect x="9.05957" y="21.4786" width="9.03459" height="1.96354" fill="#F6EF3E"/><rect x="34.1519" y="23.0503" width="7.06842" height="19.9995" fill="#F57B20"/><path d="M34.1519 6.46931H41.2203V23.7643C41.2203 25.7061 39.6278 27.2802 37.6861 27.2802C35.7443 27.2802 34.1519 25.7061 34.1519 23.7643V6.46931Z" fill="#F6A725"/><rect x="33.1719" y="21.4786" width="9.03459" height="1.96354" fill="#F6EF3E"/><g filter="url(#filter0_d_21225_289)"><path d="M198.541 22.687C199.513 22.0829 200 21.1514 200 19.8927C200 18.248 199.299 16.9557 197.899 16.0159C196.538 15.0592 194.933 14.5809 193.085 14.5809C191.276 14.5809 189.623 15.1012 188.126 16.1417C186.647 17.1655 185.908 18.5333 185.908 20.2451C185.908 20.8829 186.113 21.4115 186.521 21.8311C186.929 22.2339 187.513 22.4353 188.272 22.4353C189.011 22.4353 189.575 22.2339 189.964 21.8311C190.372 21.4115 190.576 20.8829 190.576 20.2451C190.537 19.7584 190.703 19.2633 191.072 18.7599C191.442 18.2396 192.113 17.9794 193.085 17.9794C193.902 17.9962 194.486 18.1976 194.836 18.5836C195.205 18.9696 195.371 19.3556 195.332 19.7416C195.332 20.0102 195.235 20.2787 195.04 20.5472C194.846 20.8158 194.641 21.0255 194.427 21.1766C194.233 21.3276 193.912 21.5458 193.465 21.8311C193.017 22.1164 192.706 22.3178 192.531 22.4353C191.52 23.157 191.014 24.1136 191.014 25.3052C191.014 25.8926 191.228 26.3877 191.656 26.7905C192.103 27.1765 192.696 27.3695 193.435 27.3695C194.174 27.3695 194.758 27.1765 195.186 26.7905C195.633 26.3877 195.857 25.8926 195.857 25.3052C195.857 25.0534 195.906 24.8185 196.003 24.6003C196.1 24.3821 196.256 24.1807 196.47 23.9961C196.703 23.8115 196.897 23.6604 197.053 23.543C197.228 23.4255 197.481 23.2744 197.812 23.0898C198.162 22.9052 198.405 22.771 198.541 22.687Z" fill="currentColor"/><path d="M173.612 27.9874L178.779 21.7371C179.309 20.9826 180.028 20.5625 180.937 20.4768C181.845 20.3739 182.64 20.5882 183.321 21.1198C184.003 21.6514 184.324 22.363 184.287 23.2547V32.2057C184.287 32.7716 184.059 33.2517 183.605 33.6461C183.17 34.0234 182.64 34.212 182.015 34.212C181.391 34.212 180.851 34.0234 180.397 33.6461C179.962 33.2517 179.744 32.7716 179.744 32.2057V26.6499L174.577 32.9002C174.047 33.6547 173.328 34.0748 172.419 34.1606C171.511 34.2634 170.716 34.0491 170.034 33.5175C169.353 32.9859 169.031 32.2743 169.069 31.3826V22.4573C169.069 21.8915 169.287 21.4113 169.722 21.0169C170.176 20.6225 170.716 20.4253 171.34 20.4253C171.965 20.4253 172.495 20.6225 172.93 21.0169C173.385 21.4113 173.612 21.8915 173.612 22.4573V27.9874Z" fill="currentColor"/><path fill-rule="evenodd" clip-rule="evenodd" d="M150.381 32.1179V22.4071C150.381 21.8487 150.142 21.3688 149.665 20.9675C149.206 20.5487 148.662 20.3393 148.031 20.3393C147.42 20.3393 146.885 20.5487 146.426 20.9675C145.968 21.3688 145.739 21.8487 145.739 22.4071V22.1715C145.509 21.648 145.051 21.2031 144.363 20.8366C143.675 20.4527 142.892 20.2608 142.013 20.2608C140.294 20.2608 138.708 20.8803 137.256 22.1192C135.842 23.3581 135.136 25.0595 135.136 27.2233C135.136 29.4394 135.833 31.1582 137.227 32.3797C138.622 33.6012 140.217 34.2119 142.013 34.2119C142.892 34.2119 143.666 34.0549 144.334 33.7408C145.003 33.4092 145.49 33.0166 145.796 32.5629C145.91 33.034 146.178 33.4267 146.598 33.7408C147.019 34.0374 147.496 34.1857 148.031 34.1857C148.662 34.1857 149.206 33.9851 149.665 33.5837C150.142 33.1824 150.381 32.6938 150.381 32.1179ZM143.052 30.3335C144.618 30.3335 145.888 28.99 145.888 27.3328C145.888 25.6755 144.618 24.3321 143.052 24.3321C141.486 24.3321 140.216 25.6755 140.216 27.3328C140.216 28.99 141.486 30.3335 143.052 30.3335Z" fill="currentColor"/><path d="M129.097 25.3703V22.5636C129.097 21.9933 129.333 21.5094 129.806 21.112C130.279 20.6972 130.831 20.4899 131.462 20.4899C132.092 20.4899 132.644 20.6972 133.117 21.112C133.59 21.5094 133.827 21.9933 133.827 22.5636V32.1803C133.827 32.7506 133.59 33.2345 133.117 33.6319C132.664 34.0294 132.112 34.2281 131.462 34.2281C130.811 34.2281 130.25 34.0294 129.777 33.6319C129.323 33.2345 129.097 32.7506 129.097 32.1803V29.3321H123.982V32.1803C123.982 32.7506 123.745 33.2345 123.272 33.6319C122.819 34.0294 122.267 34.2281 121.617 34.2281C120.966 34.2281 120.405 34.0294 119.932 33.6319C119.478 33.2345 119.252 32.7506 119.252 32.1803V22.5636C119.252 21.9933 119.488 21.5094 119.961 21.112C120.434 20.6972 120.986 20.4899 121.617 20.4899C122.247 20.4899 122.799 20.6972 123.272 21.112C123.745 21.5094 123.982 21.9933 123.982 22.5636V25.3703H129.097Z" fill="currentColor"/><path d="M116.878 20.4899C117.342 20.4899 117.739 20.6617 118.07 21.0053C118.401 21.349 118.566 22.1411 118.566 22.6222C118.566 23.1033 118.401 23.6007 118.07 23.9444C117.739 24.288 117.342 24.4089 116.878 24.4089H112.914V32.2298C112.914 33.7099 111.583 34.2282 110.248 34.2282C109.01 34.2282 107.827 33.5724 107.827 32.2437L107.868 20.4899C107.868 20.4899 114.775 20.4899 116.878 20.4899Z" fill="currentColor"/><path d="M88.598 14.5809V32.0428C88.598 32.6187 88.2781 33.1072 87.8347 33.5085C87.4098 33.9099 86.742 34.1105 86.1323 34.1105C85.5227 34.1105 84.6414 33.9099 84.198 33.5085C83.7731 33.1072 83.5606 32.6186 83.5606 32.0427V18.5223H76.4283V32.0427C76.4283 32.6186 76.2066 33.1072 75.7632 33.5085C75.3383 33.9099 74.4732 34.1105 73.8635 34.1105C73.2539 34.1105 72.4548 33.9099 72.0114 33.5085C71.5865 33.1072 71.374 32.6186 71.374 32.0427V14.5809C77.0826 14.5809 88.598 14.5809 88.598 14.5809Z" fill="currentColor"/><path d="M104.385 32.0866C102.942 33.4105 101.012 34.0725 98.5936 34.0725C96.1755 34.0725 94.2558 33.4105 92.8346 32.0866C91.3709 30.743 90.6391 29.0634 90.6391 27.0479C90.6391 25.0127 91.3709 23.3331 92.8346 22.0092C94.2558 20.6853 96.1755 20.0234 98.5936 20.0234C101.012 20.0234 102.942 20.6853 104.385 22.0092C105.827 23.3529 106.548 25.0324 106.548 27.0479C106.548 29.0634 105.827 30.743 104.385 32.0866ZM100.63 24.9732C100.227 24.5582 99.7285 24.3112 99.1346 24.2322C98.5618 24.1334 98.0103 24.1828 97.48 24.3804C96.9709 24.578 96.5361 24.9139 96.1755 25.3881C95.8361 25.8623 95.6876 26.4156 95.73 27.0479C95.73 27.8778 95.9952 28.5694 96.5255 29.1227C97.077 29.6562 97.7664 29.9229 98.5936 29.9229C99.4421 29.9229 100.132 29.6661 100.662 29.1523C101.192 28.6188 101.457 27.9173 101.457 27.0479C101.457 26.218 101.182 25.5264 100.63 24.9732Z" fill="currentColor"/><path d="M157.154 20.4253C159.866 20.4253 167.092 20.4647 167.092 20.4647C167.092 20.4647 167.097 29.0977 167.097 32.1146C167.097 32.6941 166.853 33.1936 166.366 33.6132C165.9 34.0129 165.479 34.2127 164.769 34.2127C164.06 34.2127 163.698 34.2652 163.211 33.8656C162.745 33.446 162.317 32.6941 162.317 32.1146V24.3218H159.025C159.025 29.908 159.026 31.1353 156.921 33.1337C156.145 33.853 155.147 34.2127 153.928 34.2127C153.196 34.2127 152.767 34.0412 152.301 33.6416C151.835 33.222 151.474 32.5523 151.474 31.9329C151.474 30.5995 151.76 30.0689 152.492 29.199C154.591 29.199 154.5 28.7019 154.368 24.9212V22.5234C154.391 21.9439 154.5 20.4253 154.5 20.4253C154.5 20.4253 156.511 20.4253 157.154 20.4253Z" fill="currentColor"/><path d="M196.194 31.2747C196.194 32.8968 194.788 34.2118 193.053 34.2118C191.318 34.2118 189.912 32.8968 189.912 31.2747C189.912 29.6525 191.318 28.3375 193.053 28.3375C194.788 28.3375 196.194 29.6525 196.194 31.2747Z" fill="currentColor"/></g></g></symbol><symbol id="logo-mobile" viewBox="0 0 96 15"><g fill="none"><path d="M94.9113 6.18874C95.6371 5.72747 96 5.01634 96 4.05535C96 2.79967 95.4774 1.81306 94.4322 1.09552C93.4161 0.365174 92.2185 0 90.8394 0C89.4894 0 88.2555 0.397207 87.1378 1.19162C86.0345 1.97322 85.4829 3.01749 85.4829 4.32443C85.4829 4.81133 85.6353 5.21494 85.9402 5.53527C86.245 5.84278 86.6805 5.99654 87.2467 5.99654C87.7983 5.99654 88.2193 5.84278 88.5096 5.53527C88.8144 5.21494 88.9668 4.81133 88.9668 4.32443C88.9378 3.95285 89.0612 3.57486 89.337 3.19047C89.6128 2.79326 90.1136 2.59466 90.8394 2.59466C91.4491 2.60747 91.8846 2.76123 92.1459 3.05593C92.4217 3.35063 92.5451 3.64533 92.5161 3.94003C92.5161 4.14504 92.4435 4.35005 92.2983 4.55506C92.1532 4.76007 92.0008 4.92024 91.8411 5.03556C91.6959 5.15088 91.4564 5.31745 91.1225 5.53527C90.7886 5.75309 90.5564 5.90685 90.4257 5.99654C89.6709 6.54751 89.2935 7.27785 89.2935 8.18758C89.2935 8.63604 89.4531 9.01403 89.7725 9.32155C90.1064 9.61625 90.5491 9.7636 91.1007 9.7636C91.6524 9.7636 92.0878 9.61625 92.4072 9.32155C92.7411 9.01403 92.908 8.63604 92.908 8.18758C92.908 7.99539 92.9443 7.816 93.0169 7.64943C93.0895 7.48286 93.2056 7.32911 93.3653 7.18816C93.5395 7.04722 93.6846 6.9319 93.8008 6.84221C93.9314 6.75252 94.1201 6.6372 94.3669 6.49625C94.6282 6.35531 94.8097 6.2528 94.9113 6.18874Z" fill="currentColor"/><path d="M76.3053 10.2354L80.1618 5.46351C80.5573 4.88748 81.0941 4.56674 81.7722 4.50128C82.4502 4.42273 83.0435 4.58638 83.5521 4.99221C84.0606 5.39805 84.3008 5.94135 84.2725 6.62211V13.4559C84.2725 13.8879 84.103 14.2545 83.764 14.5556C83.4391 14.8436 83.0435 14.9876 82.5774 14.9876C82.1112 14.9876 81.7086 14.8436 81.3696 14.5556C81.0447 14.2545 80.8822 13.8879 80.8822 13.4559V9.21424L77.0257 13.9861C76.6302 14.5622 76.0934 14.8829 75.4153 14.9484C74.7373 15.0269 74.144 14.8633 73.6354 14.4574C73.1269 14.0516 72.8867 13.5083 72.915 12.8275V6.01336C72.915 5.58133 73.0774 5.21477 73.4023 4.91367C73.7413 4.61256 74.144 4.46201 74.6101 4.46201C75.0763 4.46201 75.4718 4.61256 75.7967 4.91367C76.1358 5.21477 76.3053 5.58133 76.3053 6.01336V10.2354Z" fill="currentColor"/><path fill-rule="evenodd" clip-rule="evenodd" d="M58.967 13.3889V5.97502C58.967 5.54871 58.7887 5.18234 58.4323 4.87593C58.0901 4.5562 57.6837 4.39633 57.2132 4.39633C56.7569 4.39633 56.3576 4.5562 56.0154 4.87593C55.6732 5.18234 55.5021 5.54871 55.5021 5.97502V5.79517C55.331 5.3955 54.9888 5.05578 54.4755 4.77601C53.9622 4.48292 53.3776 4.33638 52.7217 4.33638C51.4384 4.33638 50.2549 4.80932 49.1712 5.7552C48.1161 6.70109 47.5885 8.00001 47.5885 9.65198C47.5885 11.3439 48.109 12.6562 49.1498 13.5887C50.1907 14.5213 51.3813 14.9876 52.7217 14.9876C53.3776 14.9876 53.955 14.8677 54.4541 14.6279C54.9531 14.3747 55.3167 14.075 55.5449 13.7286C55.6304 14.0883 55.8301 14.3881 56.1438 14.6279C56.4574 14.8543 56.8139 14.9676 57.2132 14.9676C57.6837 14.9676 58.0901 14.8144 58.4323 14.508C58.7887 14.2015 58.967 13.8285 58.967 13.3889ZM53.4968 12.0265C54.6657 12.0265 55.6133 11.0009 55.6133 9.73559C55.6133 8.47034 54.6657 7.44464 53.4968 7.44464C52.328 7.44464 51.3804 8.47034 51.3804 9.73559C51.3804 11.0009 52.328 12.0265 53.4968 12.0265Z" fill="currentColor"/><path d="M43.0813 8.23733V6.09447C43.0813 5.65909 43.2578 5.28968 43.6109 4.98624C43.9639 4.6696 44.3758 4.51128 44.8466 4.51128C45.3173 4.51128 45.7292 4.6696 46.0822 4.98624C46.4353 5.28968 46.6118 5.65909 46.6118 6.09447V13.4365C46.6118 13.8719 46.4353 14.2413 46.0822 14.5448C45.7439 14.8482 45.332 14.9999 44.8466 14.9999C44.3611 14.9999 43.9419 14.8482 43.5888 14.5448C43.2505 14.2413 43.0813 13.8719 43.0813 13.4365V11.262H39.264V13.4365C39.264 13.8719 39.0875 14.2413 38.7344 14.5448C38.3961 14.8482 37.9842 14.9999 37.4988 14.9999C37.0133 14.9999 36.5941 14.8482 36.241 14.5448C35.9027 14.2413 35.7335 13.8719 35.7335 13.4365V6.09447C35.7335 5.65909 35.9101 5.28968 36.2631 4.98624C36.6161 4.6696 37.028 4.51128 37.4988 4.51128C37.9695 4.51128 38.3814 4.6696 38.7344 4.98624C39.0875 5.28968 39.264 5.65909 39.264 6.09447V8.23733H43.0813Z" fill="currentColor"/><path d="M33.9622 4.51128C34.308 4.51128 34.6045 4.64246 34.8515 4.90482C35.0985 5.16718 35.222 5.7719 35.222 6.1392C35.222 6.50651 35.0985 6.8863 34.8515 7.14866C34.6045 7.41102 34.308 7.5033 33.9622 7.5033H31.0038V13.4743C31.0038 14.6043 30.0103 15 29.014 15C28.0896 15 27.207 14.4993 27.207 13.4849L27.2376 4.51128C27.2376 4.51128 32.3922 4.51128 33.9622 4.51128Z" fill="currentColor"/><path d="M12.8551 0V13.3315C12.8551 13.7712 12.6164 14.1441 12.2855 14.4505C11.9684 14.757 11.4699 14.9102 11.0149 14.9102C10.5599 14.9102 9.9021 14.757 9.57117 14.4505C9.25404 14.1441 9.09547 13.7711 9.09547 13.3315V3.00913H3.77227V13.3315C3.77227 13.7711 3.60681 14.1441 3.27589 14.4505C2.95875 14.757 2.31306 14.9102 1.85804 14.9102C1.40303 14.9102 0.806623 14.757 0.475701 14.4505C0.158567 14.1441 0 13.7711 0 13.3315V0C4.26062 0 12.8551 0 12.8551 0Z" fill="currentColor"/><path d="M24.6375 13.365C23.5609 14.3757 22.1202 14.8811 20.3154 14.8811C18.5106 14.8811 17.0778 14.3757 16.0171 13.365C14.9247 12.3391 14.3785 11.0569 14.3785 9.51811C14.3785 7.96428 14.9247 6.68199 16.0171 5.67125C17.0778 4.6605 18.5106 4.15513 20.3154 4.15513C22.1202 4.15513 23.5609 4.6605 24.6375 5.67125C25.714 6.69708 26.2523 7.97937 26.2523 9.51811C26.2523 11.0569 25.714 12.3391 24.6375 13.365ZM21.8353 7.93411C21.5345 7.61731 21.1624 7.42874 20.7191 7.36839C20.2917 7.29296 19.88 7.33068 19.4843 7.48154C19.1043 7.63239 18.7797 7.88885 18.5106 8.25091C18.2573 8.61297 18.1465 9.03537 18.1781 9.51811C18.1781 10.1517 18.376 10.6797 18.7718 11.1021C19.1835 11.5094 19.698 11.7131 20.3154 11.7131C20.9487 11.7131 21.4632 11.517 21.859 11.1247C22.2548 10.7174 22.4527 10.1819 22.4527 9.51811C22.4527 8.88451 22.2469 8.35651 21.8353 7.93411Z" fill="currentColor"/><path d="M64.0219 4.46201C66.0459 4.46201 71.4392 4.49207 71.4392 4.49207C71.4392 4.49207 71.4433 11.0831 71.4433 13.3863C71.4433 13.8287 71.2612 14.2101 70.8972 14.5305C70.5497 14.8356 70.2353 14.9882 69.7058 14.9882C69.1763 14.9882 68.9064 15.0283 68.5424 14.7232C68.1949 14.4028 67.8752 13.8287 67.8752 13.3863V7.43679H65.4188C65.4188 11.7016 65.4189 12.6387 63.8482 14.1644C63.269 14.7136 62.5244 14.9882 61.6143 14.9882C61.0683 14.9882 60.7474 14.8573 60.4 14.5522C60.0525 14.2318 59.7828 13.7205 59.7828 13.2476C59.7828 12.2296 59.9964 11.8245 60.5424 11.1604C62.1091 11.1604 62.0413 10.7809 61.943 7.89444V6.06381C61.9596 5.62141 62.0413 4.46201 62.0413 4.46201C62.0413 4.46201 63.542 4.46201 64.0219 4.46201Z" fill="currentColor"/><path d="M93.1598 12.7451C93.1598 13.9835 92.1101 14.9875 90.8153 14.9875C89.5204 14.9875 88.4707 13.9835 88.4707 12.7451C88.4707 11.5066 89.5204 10.5027 90.8153 10.5027C92.1101 10.5027 93.1598 11.5066 93.1598 12.7451Z" fill="currentColor"/></g></symbol><symbol id="mail-full" viewBox="0 0 28 19"><g fill="currentColor"><path fill-rule="evenodd" clip-rule="evenodd" d="M24.5436 15.5047L17.9999 9.5111L24.5436 3.5175L23.6513 2.56398L14.1331 11.2819L4.61493 2.56398L3.7226 3.5175L10.2664 9.5111L3.7226 15.5047L4.61493 16.4582L11.233 10.3965L14.1331 13.0528L17.0332 10.3965L23.6513 16.4582L24.5436 15.5047ZM2.53679 0.0666504C1.31428 0.0666504 0.323242 1.12267 0.323242 2.42075V16.6014C0.323242 17.9016 1.30624 18.9555 2.53679 18.9555H25.7294C26.952 18.9555 27.943 17.8995 27.943 16.6014V2.42075C27.943 1.12062 26.96 0.0666504 25.7294 0.0666504H2.53679Z"/></g></symbol><symbol id="mail-small" viewBox="0 0 16 14"><g fill="currentColor"><path d="M1.25901 2.60026L7.25901 6.36066C7.46061 6.48666 7.72141 6.54639 7.98381 6.54639C8.24621 6.54639 8.50701 6.48666 8.70861 6.36066L14.7086 2.60026C15.0998 2.35479 15.4694 1.39999 14.7518 1.39999H1.21661C0.499006 1.39999 0.868606 2.35479 1.25901 2.60026ZM14.8902 4.65639L8.70861 8.41493C8.43661 8.58106 8.24621 8.60066 7.98381 8.60066C7.72141 8.60066 7.53101 8.58106 7.25901 8.41493C6.98701 8.24879 1.55261 4.92519 1.10861 4.65546C0.796606 4.46506 0.799806 4.68813 0.799806 4.85986V11.6667C0.799806 12.0587 1.25261 12.6 1.59981 12.6H14.3998C14.747 12.6 15.1998 12.0587 15.1998 11.6667V4.86079C15.1998 4.68906 15.203 4.46599 14.8902 4.65639Z"/></g></symbol><symbol id="telegram" viewBox="0 0 25 25"><g fill="currentColor"><path d="M22.1244 3.56292C21.9157 3.38996 21.6641 3.27669 21.3963 3.23512C21.1284 3.19355 20.8544 3.22522 20.6031 3.32679L3.26403 10.3265C2.98384 10.4416 2.7453 10.6392 2.58007 10.8931C2.41484 11.147 2.33074 11.4452 2.33892 11.748C2.34711 12.0508 2.44721 12.344 2.62592 12.5886C2.80464 12.8332 3.05351 13.0176 3.33952 13.1174L7.08081 14.4161L9.10823 21.1187C9.1121 21.1323 9.12468 21.141 9.13049 21.1536C9.15137 21.207 9.18188 21.2562 9.22049 21.2987C9.27915 21.3642 9.35487 21.4122 9.4392 21.4371C9.44887 21.441 9.45565 21.4497 9.46532 21.4516H9.47113L9.47403 21.4526C9.5489 21.4687 9.6267 21.4647 9.69952 21.441C9.70726 21.4391 9.715 21.4391 9.72371 21.4361C9.79363 21.4116 9.8569 21.3712 9.90855 21.3181C9.91436 21.3113 9.92403 21.3103 9.92984 21.3045L12.8456 18.0858L17.1008 21.381C17.3592 21.5832 17.6776 21.6926 18.0056 21.6926C18.716 21.6926 19.3286 21.1952 19.4747 20.5013L22.6315 5.00002C22.685 4.73686 22.6661 4.46411 22.5768 4.21085C22.4875 3.95759 22.3311 3.73331 22.1244 3.56195V3.56292ZM10.166 15.6887L9.48178 19.0149L8.05436 14.2942L15.1334 10.6071L10.2976 15.4439C10.2306 15.5108 10.1848 15.596 10.166 15.6887V15.6887ZM18.5263 20.3068C18.5081 20.3945 18.4677 20.4762 18.4089 20.5438C18.3501 20.6114 18.2749 20.6628 18.1905 20.6929C18.1082 20.7246 18.019 20.7343 17.9318 20.7211C17.8446 20.7078 17.7623 20.6721 17.6931 20.6174L13.0837 17.0474C12.9874 16.9731 12.8665 16.9377 12.7453 16.9485C12.624 16.9592 12.5113 17.0153 12.4295 17.1055L10.4002 19.342L11.0834 16.0255L18.0405 9.06744C18.122 8.9857 18.1715 8.87752 18.1803 8.76244C18.189 8.64736 18.1563 8.53295 18.0881 8.43986C18.0199 8.34676 17.9206 8.28112 17.8083 8.25476C17.6959 8.22841 17.5778 8.24309 17.4753 8.29615L7.44661 13.52L3.65597 12.202C3.55546 12.1688 3.4678 12.1051 3.40519 12.0197C3.34257 11.9344 3.30812 11.8317 3.30662 11.7258C3.30179 11.6191 3.33032 11.5134 3.38824 11.4236C3.44616 11.3338 3.5306 11.2642 3.62984 11.2245L20.966 4.22486C21.0548 4.18711 21.1524 4.1749 21.2478 4.18961C21.3432 4.20431 21.4326 4.24534 21.506 4.30808C21.5789 4.3671 21.634 4.44524 21.6651 4.53376C21.6962 4.62228 21.7021 4.7177 21.6821 4.80937L18.5263 20.3078V20.3068Z"/></g></symbol><symbol id="vkontakte" viewBox="0 0 31 25"><g fill="currentColor"><path d="M24.8333 20.6646C24.0955 20.648 23.3763 20.4302 22.7533 20.0346C22.1029 19.595 21.5056 19.0816 20.9733 18.5046C20.5333 18.0646 19.8033 17.3246 19.5233 17.3246C19.2433 17.3246 19.0433 18.2446 19.0533 18.8946C19.0575 19.3433 18.8893 19.7765 18.5833 20.1046C18.2353 20.3888 17.8106 20.5629 17.3633 20.6046H15.4433C12.6837 20.5439 10.0413 19.477 8.01327 17.6046C4.33327 14.2346 1.17327 7.79462 1.04327 7.51462C0.91927 7.2807 0.867342 7.01529 0.894038 6.75189C0.920734 6.48849 1.02486 6.2389 1.19327 6.03462C1.57441 5.71676 2.05705 5.54641 2.55327 5.55462H6.63327H6.75327C7.09085 5.60387 7.41443 5.72308 7.70327 5.90462C7.97508 6.08688 8.19272 6.33907 8.33327 6.63462C8.76444 7.55768 9.25896 8.44981 9.81327 9.30462C11.1233 11.3046 11.7033 11.7646 11.9133 11.8646C12.1469 10.9269 12.2112 9.95497 12.1033 8.99462C12.1383 8.55722 12.0662 8.11788 11.8933 7.71462C11.6737 7.53899 11.4041 7.43746 11.1233 7.42462L10.3933 6.73462C10.2533 6.07462 10.9833 5.50462 11.4933 5.28462C12.5111 4.96571 13.5788 4.8369 14.6433 4.90462H15.3533C16.0753 4.88581 16.7971 4.95295 17.5033 5.10462C19.2033 5.46462 19.1433 6.83462 19.0733 8.41462C19.0733 8.87462 19.0233 9.41462 19.0233 10.0346C19.0233 10.1846 19.0233 10.3446 19.0233 10.5146C18.9839 10.95 19.0143 11.3888 19.1133 11.8146C19.9458 11.1182 20.6469 10.2782 21.1833 9.33462C21.7622 8.44236 22.2704 7.50617 22.7033 6.53462V6.53462C22.8351 6.22734 23.0611 5.96981 23.3486 5.7991C23.6361 5.62838 23.9704 5.55329 24.3033 5.58462H28.5833C28.7097 5.57256 28.8369 5.57256 28.9633 5.58462C29.9633 5.58462 30.5533 5.87462 30.7933 6.43462C31.0333 6.99462 30.9633 8.09462 28.4333 11.0446L27.4333 12.1746C26.9488 12.645 26.5315 13.1801 26.1933 13.7646C26.5721 14.1952 27.0019 14.578 27.4733 14.9046C28.6225 15.7706 29.634 16.8057 30.4733 17.9746C30.6701 18.2019 30.7989 18.4801 30.8449 18.7772C30.8908 19.0744 30.8522 19.3784 30.7333 19.6546C30.5237 19.9605 30.2433 20.2112 29.916 20.3853C29.5886 20.5594 29.224 20.6518 28.8533 20.6546L25.0633 20.7046L24.8333 20.6646ZM19.5233 15.8246C20.4233 15.8246 21.2033 16.6146 22.0333 17.4446C22.4816 17.9342 22.9849 18.3704 23.5333 18.7446C23.9479 19.0204 24.4353 19.1666 24.9333 19.1646H25.0333L28.8333 19.1146C29.0207 19.1039 29.2042 19.0563 29.3733 18.9746L29.2733 18.8146C28.5163 17.783 27.6135 16.8668 26.5933 16.0946C25.4033 15.0946 24.7933 14.6246 24.7233 13.8546C24.6533 13.0846 25.2133 12.4146 26.3333 11.1446L27.3333 10.0346C28.1775 9.17347 28.8706 8.17616 29.3833 7.08462C29.1601 7.07139 28.9364 7.07139 28.7133 7.08462H24.3433C24.2642 7.06695 24.1823 7.06695 24.1033 7.08462C23.6404 8.14606 23.0884 9.16638 22.4533 10.1346C20.5633 12.9546 19.6733 13.3346 19.0433 13.3346C18.8479 13.3346 18.6556 13.2865 18.4833 13.1946C17.4833 12.6246 17.4833 11.3546 17.5433 10.4346C17.5433 10.2846 17.5433 10.1346 17.5433 10.0046C17.5433 9.35462 17.5433 8.79462 17.5933 8.31462C17.6733 6.63462 17.5933 6.62462 17.2133 6.53462C16.601 6.41363 15.9772 6.35998 15.3533 6.37462H14.6633C14.0283 6.3615 13.3933 6.39492 12.7633 6.47462C12.8587 6.54492 12.943 6.6292 13.0133 6.72462C13.4257 7.37496 13.6314 8.13502 13.6033 8.90462C13.7333 10.5546 13.6633 12.7046 12.6033 13.2246C12.4156 13.3125 12.2105 13.3569 12.0033 13.3546C11.0733 13.3546 10.1533 12.4746 8.58327 10.0946C7.98079 9.18333 7.44281 8.231 6.97327 7.24462L6.89327 7.14462C6.79228 7.09314 6.68456 7.05611 6.57327 7.03462H2.57327H2.50327C3.09327 8.25462 5.89327 13.6546 9.02327 16.4846C10.7808 18.0993 13.058 19.0322 15.4433 19.1146H17.2933C17.3876 19.0945 17.4786 19.0608 17.5633 19.0146C17.5633 19.0146 17.5633 19.0146 17.5633 18.9246C17.5633 18.6546 17.5633 16.3246 19.1433 15.9246C19.2656 15.8764 19.3931 15.8429 19.5233 15.8246V15.8246Z"/></g></symbol><symbol id="youtube" viewBox="0 0 25 25"><g fill="currentColor"><path d="M15.6029 12.2006L11.248 9.29735C11.1935 9.26101 11.13 9.24012 11.0645 9.23693C10.9991 9.23373 10.9339 9.24835 10.8761 9.27921C10.8181 9.30938 10.7696 9.35502 10.7359 9.41107C10.7023 9.46712 10.6849 9.53139 10.6855 9.59675V15.4032C10.6849 15.4686 10.7023 15.5328 10.7359 15.5889C10.7696 15.6449 10.8181 15.6906 10.8761 15.7207C10.9295 15.7484 10.9883 15.7639 11.0484 15.7661C11.1201 15.7674 11.1903 15.7451 11.248 15.7026L15.6029 12.7994C15.6535 12.7675 15.6952 12.7233 15.7241 12.671C15.753 12.6186 15.7681 12.5598 15.7681 12.5C15.7681 12.4402 15.753 12.3813 15.7241 12.329C15.6952 12.2766 15.6535 12.2325 15.6029 12.2006V12.2006ZM11.4113 14.7228V10.2772L14.75 12.5L11.4113 14.7228ZM21.7994 7.31046C21.7245 7.03384 21.5863 6.77841 21.3958 6.56429C21.2053 6.35017 20.9677 6.18322 20.7017 6.07659C17.6351 4.89715 12.7087 4.9153 12.5 4.9153C12.2914 4.9153 7.36497 4.89715 4.29843 6.07659C4.03241 6.18322 3.79479 6.35017 3.60429 6.56429C3.41378 6.77841 3.27561 7.03384 3.20065 7.31046C2.97384 8.1905 2.70166 9.80542 2.70166 12.5C2.70166 15.1945 2.97384 16.8095 3.20065 17.6895C3.27561 17.9661 3.41378 18.2215 3.60429 18.4357C3.79479 18.6498 4.03241 18.8167 4.29843 18.9234C7.36497 20.1028 12.2914 20.0847 12.5 20.0847H12.5636C13.1896 20.0847 17.7894 20.0484 20.7017 18.9234C20.9677 18.8167 21.2053 18.6498 21.3958 18.4357C21.5863 18.2215 21.7245 17.9661 21.7994 17.6895C22.0263 16.8095 22.2984 15.1945 22.2984 12.5C22.2984 9.80542 22.0263 8.1905 21.7994 7.31046V7.31046ZM21.0918 17.508C21.0482 17.6732 20.9663 17.8258 20.8529 17.9534C20.7394 18.0811 20.5975 18.1803 20.4386 18.2429C17.499 19.377 12.5545 19.3588 12.5 19.3588C12.4456 19.3588 7.50106 19.377 4.56154 18.2429C4.40264 18.1803 4.26072 18.0811 4.14724 17.9534C4.03376 17.8258 3.95192 17.6732 3.90831 17.508C3.69057 16.6643 3.42747 15.1129 3.42747 12.5C3.42747 9.88707 3.69057 8.33566 3.90831 7.49191C3.95192 7.32676 4.03376 7.17419 4.14724 7.04653C4.26072 6.91887 4.40264 6.8197 4.56154 6.75703C7.50106 5.62296 12.4456 5.64111 12.5 5.64111C12.5545 5.64111 17.499 5.62296 20.4386 6.75703C20.5975 6.8197 20.7394 6.91887 20.8529 7.04653C20.9663 7.17419 21.0482 7.32676 21.0918 7.49191C21.3095 8.33566 21.5726 9.88707 21.5726 12.5C21.5726 15.1129 21.3095 16.6643 21.0918 17.508Z"/></g></symbol></svg>